<svg version="1.1" id="Layer_1" xmlns="http://www.w3.org/2000/svg" xmlns:xlink="http://www.w3.org/1999/xlink" x="0px" y="0px"
	 width="100%" viewBox="0 0 2048 2048" enable-background="new 0 0 2048 2048" xml:space="preserve">
<path fill="#1D1B1B" opacity="1.000000" stroke="none" 
	d="
M964.000000,2049.000000 
	C642.666687,2049.000000 321.833344,2049.000000 1.000000,2049.000000 
	C1.000000,1366.333374 1.000000,683.666687 1.000000,1.000000 
	C683.666687,1.000000 1366.333374,1.000000 2049.000000,1.000000 
	C2049.000000,683.666687 2049.000000,1366.333374 2049.000000,2049.000000 
	C1687.500000,2049.000000 1326.000000,2049.000000 964.000000,2049.000000 
M670.064209,1265.426880 
	C699.116333,1299.935059 742.850769,1307.800781 765.770813,1300.250610 
	C760.089050,1287.204468 757.272461,1273.736938 758.864685,1259.389404 
	C762.043274,1230.747803 785.737793,1205.071533 813.983643,1200.070312 
	C822.074036,1198.637817 828.668884,1202.686646 829.915649,1209.851685 
	C831.103210,1216.676758 826.237610,1222.535400 818.191650,1223.751587 
	C808.685059,1225.188721 800.995361,1229.946411 794.684631,1236.893066 
	C780.280090,1252.748779 778.054382,1274.110840 789.591614,1293.880615 
	C819.131409,1344.498901 883.945801,1365.524902 938.427612,1338.152222 
	C980.961975,1316.782227 1002.460815,1280.669556 1003.191956,1233.425415 
	C1004.125366,1173.109863 1003.497925,1112.770142 1003.523926,1052.440796 
	C1003.530212,1037.806274 999.157166,1024.563232 990.475342,1012.802979 
	C976.935486,994.462158 951.875671,985.312134 930.578064,994.848816 
	C928.343933,995.849182 925.305603,995.860107 922.835876,995.361633 
	C917.491394,994.282715 913.992249,989.891052 913.690796,984.854614 
	C913.337646,978.954895 916.456116,974.136230 922.636719,971.879822 
	C937.854126,966.324402 953.254028,966.393860 968.809326,970.572510 
	C981.753113,974.049805 992.732727,980.866394 1003.112976,990.639282 
	C1003.112976,988.584900 1003.112915,987.490662 1003.112976,986.396423 
	C1003.117065,912.733398 1003.179993,839.070251 1003.031616,765.407532 
	C1003.017273,758.293152 1002.192078,751.088928 1000.893494,744.083862 
	C993.843567,706.054260 962.393860,674.587585 925.183105,667.970520 
	C883.995117,660.646301 845.867981,677.485107 825.126282,712.656677 
	C814.314148,730.990906 809.602173,750.586121 816.537170,771.562866 
	C819.898926,781.731140 825.950989,790.089661 835.129944,795.776489 
	C849.515503,785.591431 858.989746,781.408875 871.647644,779.554321 
	C878.600037,778.535706 884.709351,782.494263 886.022705,788.868835 
	C887.427734,795.688049 883.499512,801.491272 876.220459,803.279480 
	C872.993591,804.072205 869.653137,804.505615 866.521118,805.565613 
	C839.903198,814.574402 824.424561,842.460999 830.176147,870.653809 
	C830.621582,872.837402 830.775452,875.345581 830.153076,877.430847 
	C828.469543,883.071350 823.548035,886.568298 818.315002,886.442139 
	C813.283936,886.320740 808.264771,882.568115 807.222778,876.560364 
	C806.008606,869.559692 805.445312,862.337097 805.594788,855.231689 
	C805.901855,840.636475 810.011108,827.044922 818.661194,814.880615 
	C793.990906,793.541443 785.611755,766.727661 790.955078,735.344116 
	C789.525269,734.966553 788.579956,734.651733 787.609558,734.474060 
	C785.481506,734.084351 783.347595,733.713867 781.204163,733.423096 
	C749.995056,729.189758 720.844788,735.055664 695.369202,753.702881 
	C661.370605,778.588806 645.895081,812.451904 649.916565,854.802612 
	C650.165466,857.423279 650.995239,858.499084 653.497192,859.192566 
	C670.001221,863.767212 683.645386,873.029480 695.395935,885.272949 
	C697.542908,887.510071 699.533508,889.897400 701.713074,892.346619 
	C713.870605,882.583252 727.272644,876.801086 742.497742,875.412415 
	C750.400574,874.691589 756.502197,878.925537 757.428772,886.020264 
	C758.322510,892.862915 753.104492,898.757324 745.286743,899.745667 
	C742.814819,900.058167 740.289612,900.161438 737.883301,900.747925 
	C710.902405,907.324036 696.254333,932.998657 699.858948,954.823547 
	C700.964050,961.515076 696.976501,966.833618 690.791626,968.319153 
	C684.774963,969.764282 679.386658,966.905212 676.899048,960.617371 
	C675.996338,958.335876 675.423401,955.804260 675.296265,953.355774 
	C674.609070,940.119568 677.020386,927.443237 683.274292,915.711426 
	C684.774048,912.897949 684.577698,911.105835 682.808350,908.649170 
	C669.510742,890.185730 651.267761,880.440979 628.922668,878.147949 
	C625.815491,877.829041 622.020874,878.450256 619.417664,880.053711 
	C611.513062,884.922668 603.349182,889.725830 596.507324,895.906250 
	C557.108582,931.496033 549.951355,989.593933 579.857544,1030.823486 
	C580.206116,1031.304199 580.320496,1031.954712 580.278870,1031.848511 
	C573.738037,1038.269409 567.231750,1044.010742 561.467224,1050.419189 
	C521.581055,1094.760254 523.498413,1162.281250 565.809570,1204.246704 
	C588.543762,1226.795166 616.267090,1237.800659 648.086914,1238.647339 
	C652.239441,1238.757812 654.375183,1239.890747 656.404602,1243.745483 
	C660.263855,1251.075562 665.152222,1257.864014 670.064209,1265.426880 
M1296.694946,1374.185303 
	C1299.998047,1371.381348 1303.303467,1368.580322 1306.603638,1365.772827 
	C1343.021729,1334.790161 1379.470825,1303.843628 1415.808960,1272.767334 
	C1419.569824,1269.551025 1423.332397,1268.024414 1428.379395,1268.172485 
	C1436.515503,1268.411377 1444.821411,1268.694458 1452.802368,1267.398682 
	C1490.206787,1261.325195 1515.826050,1231.109863 1516.083496,1193.182373 
	C1516.255371,1167.857300 1516.107422,1142.530151 1516.091553,1117.203857 
	C1516.058350,1063.885376 1516.128418,1010.566467 1515.939819,957.248413 
	C1515.823364,924.315857 1494.295532,895.637512 1463.186035,887.690430 
	C1454.455566,885.460144 1445.076660,885.040344 1435.993774,885.029419 
	C1326.691040,884.897705 1217.388062,885.022095 1108.085083,885.003723 
	C1097.290649,885.001892 1086.699829,886.210876 1076.819214,890.549194 
	C1047.924805,903.235901 1032.298218,925.494446 1031.723145,957.092712 
	C1031.080566,992.404541 1031.529297,1027.736206 1031.492432,1063.059204 
	C1031.447266,1106.380249 1031.255249,1149.701660 1031.378296,1193.022217 
	C1031.497070,1234.797485 1063.554810,1268.003052 1104.366333,1268.192749 
	C1162.015015,1268.460693 1219.666382,1268.213135 1277.316528,1268.158203 
	C1283.788208,1268.151978 1283.826294,1268.068481 1283.829956,1274.617432 
	C1283.849243,1309.440918 1283.844482,1344.264404 1283.863647,1379.087891 
	C1283.864502,1380.656982 1284.015137,1382.225952 1284.151001,1384.862061 
	C1288.671265,1381.021362 1292.416992,1377.838867 1296.694946,1374.185303 
M1080.181641,857.473694 
	C1088.791260,856.688660 1097.394653,855.321777 1106.011841,855.227539 
	C1132.169556,854.941589 1158.332520,855.147827 1184.493530,855.162292 
	C1186.271729,855.163269 1188.049805,855.162476 1190.109985,855.162476 
	C1189.491333,845.571655 1186.978516,837.214417 1182.351074,829.544006 
	C1174.194580,816.023621 1162.422852,807.432312 1146.961060,803.966736 
	C1138.973633,802.176514 1134.915894,796.974854 1135.944092,789.947754 
	C1137.001221,782.722717 1144.078125,778.496704 1152.309448,780.301575 
	C1164.026367,782.870911 1174.746704,787.657104 1184.215576,795.082764 
	C1186.156738,796.605103 1187.689453,797.726929 1190.222778,795.694092 
	C1208.609985,780.940063 1216.654297,761.896912 1212.350708,738.730286 
	C1205.415405,701.397034 1174.010986,673.228699 1134.229492,667.538330 
	C1085.618164,660.585022 1038.622681,693.779968 1030.090088,742.122803 
	C1027.769897,755.267822 1028.611206,768.977966 1028.109375,782.432800 
	C1027.933472,787.150146 1028.081421,791.879578 1028.081421,797.510071 
	C1042.903198,784.253723 1059.359497,778.093445 1078.068237,777.989563 
	C1086.647827,777.941956 1092.194458,782.825134 1092.127319,790.149536 
	C1092.062744,797.198975 1086.597656,801.809021 1078.203125,801.895325 
	C1050.785889,802.177185 1028.254028,824.944580 1028.150757,852.509583 
	C1028.110229,863.340332 1028.139648,874.171387 1028.158813,885.002258 
	C1028.161255,886.395447 1028.294189,887.788452 1028.409180,889.999939 
	C1041.956543,872.712158 1058.631836,861.947144 1080.181641,857.473694 
M1350.455200,855.076782 
	C1353.546753,855.076782 1356.638306,855.076782 1359.619019,855.076782 
	C1368.119995,784.449280 1305.298828,723.426880 1235.674194,734.092896 
	C1238.344604,749.731018 1237.776123,765.163391 1231.994629,780.170288 
	C1226.180542,795.261414 1216.314453,807.061157 1202.719238,816.118835 
	C1210.457031,828.078613 1213.996948,841.025696 1214.050293,855.077087 
	C1259.523315,855.077087 1304.496094,855.077087 1350.455200,855.076782 
M1982.232910,1963.745361 
	C1991.609863,1939.011108 1975.215332,1915.053101 1948.835938,1914.962769 
	C1940.345215,1914.933716 1931.852783,1914.857788 1923.363892,1914.983765 
	C1904.237793,1915.267456 1888.990234,1930.823730 1888.960693,1949.957397 
	C1888.931274,1969.071289 1904.172607,1984.697876 1923.283081,1985.011963 
	C1931.605225,1985.148804 1939.931641,1984.997803 1948.255737,1985.047974 
	C1963.755981,1985.141235 1974.994385,1978.308838 1982.232910,1963.745361 
z"/>
<path fill="#9BD893" opacity="1.000000" stroke="none" 
	d="
M669.838745,1265.152100 
	C665.152222,1257.864014 660.263855,1251.075562 656.404602,1243.745483 
	C654.375183,1239.890747 652.239441,1238.757812 648.086914,1238.647339 
	C616.267090,1237.800659 588.543762,1226.795166 565.809570,1204.246704 
	C523.498413,1162.281250 521.581055,1094.760254 561.467224,1050.419189 
	C567.231750,1044.010742 573.738037,1038.269409 580.278870,1031.848511 
	C580.320496,1031.954712 580.206116,1031.304199 579.857544,1030.823486 
	C549.951355,989.593933 557.108582,931.496033 596.507324,895.906250 
	C603.349182,889.725830 611.513062,884.922668 619.417664,880.053711 
	C622.020874,878.450256 625.815491,877.829041 628.922668,878.147949 
	C651.267761,880.440979 669.510742,890.185730 682.808350,908.649170 
	C684.577698,911.105835 684.774048,912.897949 683.274292,915.711426 
	C677.020386,927.443237 674.609070,940.119568 675.296265,953.355774 
	C675.423401,955.804260 675.996338,958.335876 676.899048,960.617371 
	C679.386658,966.905212 684.774963,969.764282 690.791626,968.319153 
	C696.976501,966.833618 700.964050,961.515076 699.858948,954.823547 
	C696.254333,932.998657 710.902405,907.324036 737.883301,900.747925 
	C740.289612,900.161438 742.814819,900.058167 745.286743,899.745667 
	C753.104492,898.757324 758.322510,892.862915 757.428772,886.020264 
	C756.502197,878.925537 750.400574,874.691589 742.497742,875.412415 
	C727.272644,876.801086 713.870605,882.583252 701.713074,892.346619 
	C699.533508,889.897400 697.542908,887.510071 695.395935,885.272949 
	C683.645386,873.029480 670.001221,863.767212 653.497192,859.192566 
	C650.995239,858.499084 650.165466,857.423279 649.916565,854.802612 
	C645.895081,812.451904 661.370605,778.588806 695.369202,753.702881 
	C720.844788,735.055664 749.995056,729.189758 781.204163,733.423096 
	C783.347595,733.713867 785.481506,734.084351 787.609558,734.474060 
	C788.579956,734.651733 789.525269,734.966553 790.955078,735.344116 
	C785.611755,766.727661 793.990906,793.541443 818.661194,814.880615 
	C810.011108,827.044922 805.901855,840.636475 805.594788,855.231689 
	C805.445312,862.337097 806.008606,869.559692 807.222778,876.560364 
	C808.264771,882.568115 813.283936,886.320740 818.315002,886.442139 
	C823.548035,886.568298 828.469543,883.071350 830.153076,877.430847 
	C830.775452,875.345581 830.621582,872.837402 830.176147,870.653809 
	C824.424561,842.460999 839.903198,814.574402 866.521118,805.565613 
	C869.653137,804.505615 872.993591,804.072205 876.220459,803.279480 
	C883.499512,801.491272 887.427734,795.688049 886.022705,788.868835 
	C884.709351,782.494263 878.600037,778.535706 871.647644,779.554321 
	C858.989746,781.408875 849.515503,785.591431 835.129944,795.776489 
	C825.950989,790.089661 819.898926,781.731140 816.537170,771.562866 
	C809.602173,750.586121 814.314148,730.990906 825.126282,712.656677 
	C845.867981,677.485107 883.995117,660.646301 925.183105,667.970520 
	C962.393860,674.587585 993.843567,706.054260 1000.893494,744.083862 
	C1002.192078,751.088928 1003.017273,758.293152 1003.031616,765.407532 
	C1003.179993,839.070251 1003.117065,912.733398 1003.112976,986.396423 
	C1003.112915,987.490662 1003.112976,988.584900 1003.112976,990.639282 
	C992.732727,980.866394 981.753113,974.049805 968.809326,970.572510 
	C953.254028,966.393860 937.854126,966.324402 922.636719,971.879822 
	C916.456116,974.136230 913.337646,978.954895 913.690796,984.854614 
	C913.992249,989.891052 917.491394,994.282715 922.835876,995.361633 
	C925.305603,995.860107 928.343933,995.849182 930.578064,994.848816 
	C951.875671,985.312134 976.935486,994.462158 990.475342,1012.802979 
	C999.157166,1024.563232 1003.530212,1037.806274 1003.523926,1052.440796 
	C1003.497925,1112.770142 1004.125366,1173.109863 1003.191956,1233.425415 
	C1002.460815,1280.669556 980.961975,1316.782227 938.427612,1338.152222 
	C883.945801,1365.524902 819.131409,1344.498901 789.591614,1293.880615 
	C778.054382,1274.110840 780.280090,1252.748779 794.684631,1236.893066 
	C800.995361,1229.946411 808.685059,1225.188721 818.191650,1223.751587 
	C826.237610,1222.535400 831.103210,1216.676758 829.915649,1209.851685 
	C828.668884,1202.686646 822.074036,1198.637817 813.983643,1200.070312 
	C785.737793,1205.071533 762.043274,1230.747803 758.864685,1259.389404 
	C757.272461,1273.736938 760.089050,1287.204468 765.770813,1300.250610 
	C742.850769,1307.800781 699.116333,1299.935059 669.838745,1265.152100 
M630.467834,1136.150757 
	C630.097412,1136.896240 629.645081,1137.612915 629.369507,1138.391968 
	C627.073120,1144.884766 629.367737,1151.220703 635.074707,1154.236328 
	C640.867981,1157.297241 645.685364,1156.082520 650.253967,1150.167969 
	C656.440430,1142.159058 664.694458,1137.036377 673.618958,1132.663086 
	C676.760437,1131.123657 678.690857,1131.280029 681.288757,1133.889526 
	C692.379089,1145.029175 705.790100,1152.117432 721.167297,1155.391113 
	C729.214722,1157.104248 736.302856,1152.830078 737.641846,1145.634766 
	C738.856995,1139.105103 734.393677,1133.835938 726.160339,1132.079834 
	C691.623535,1124.713623 671.655823,1084.863525 686.308899,1052.547363 
	C689.199890,1046.171509 687.660583,1040.556641 682.059875,1037.048706 
	C676.493591,1033.562378 669.828064,1034.846069 665.737366,1040.505127 
	C664.103943,1042.764893 662.803406,1045.372925 661.859558,1048.004761 
	C657.808411,1059.301025 656.046204,1071.031616 657.625427,1082.910645 
	C658.859253,1092.191406 661.293030,1101.312622 663.253357,1110.793945 
	C650.521606,1115.779907 639.370483,1123.916260 630.467834,1136.150757 
z"/>
<path fill="#F38535" opacity="1.000000" stroke="none" 
	d="
M1296.428833,1374.420776 
	C1292.416992,1377.838867 1288.671265,1381.021362 1284.151001,1384.862061 
	C1284.015137,1382.225952 1283.864502,1380.656982 1283.863647,1379.087891 
	C1283.844482,1344.264404 1283.849243,1309.440918 1283.829956,1274.617432 
	C1283.826294,1268.068481 1283.788208,1268.151978 1277.316528,1268.158203 
	C1219.666382,1268.213135 1162.015015,1268.460693 1104.366333,1268.192749 
	C1063.554810,1268.003052 1031.497070,1234.797485 1031.378296,1193.022217 
	C1031.255249,1149.701660 1031.447266,1106.380249 1031.492432,1063.059204 
	C1031.529297,1027.736206 1031.080566,992.404541 1031.723145,957.092712 
	C1032.298218,925.494446 1047.924805,903.235901 1076.819214,890.549194 
	C1086.699829,886.210876 1097.290649,885.001892 1108.085083,885.003723 
	C1217.388062,885.022095 1326.691040,884.897705 1435.993774,885.029419 
	C1445.076660,885.040344 1454.455566,885.460144 1463.186035,887.690430 
	C1494.295532,895.637512 1515.823364,924.315857 1515.939819,957.248413 
	C1516.128418,1010.566467 1516.058350,1063.885376 1516.091553,1117.203857 
	C1516.107422,1142.530151 1516.255371,1167.857300 1516.083496,1193.182373 
	C1515.826050,1231.109863 1490.206787,1261.325195 1452.802368,1267.398682 
	C1444.821411,1268.694458 1436.515503,1268.411377 1428.379395,1268.172485 
	C1423.332397,1268.024414 1419.569824,1269.551025 1415.808960,1272.767334 
	C1379.470825,1303.843628 1343.021729,1334.790161 1306.603638,1365.772827 
	C1303.303467,1368.580322 1299.998047,1371.381348 1296.428833,1374.420776 
M1182.509399,1047.992798 
	C1171.209229,1037.791504 1158.253784,1034.133545 1143.741211,1039.414185 
	C1130.008911,1044.410889 1121.417480,1054.493652 1119.143433,1068.996460 
	C1116.436157,1086.262329 1126.652710,1103.172974 1142.712158,1109.326538 
	C1159.248291,1115.662964 1177.634277,1109.911499 1187.205933,1095.407959 
	C1196.933960,1080.667603 1195.224731,1061.558716 1182.509399,1047.992798 
M1395.028198,1111.601440 
	C1396.505981,1111.359009 1397.994751,1111.169922 1399.459717,1110.865845 
	C1416.210571,1107.390747 1428.812744,1091.742065 1428.752441,1074.515625 
	C1428.689575,1056.566528 1416.116821,1041.601807 1398.286255,1038.253418 
	C1380.720459,1034.954712 1362.971436,1044.207275 1356.636841,1060.116333 
	C1346.572876,1085.391602 1365.094971,1113.676392 1395.028198,1111.601440 
M1237.010742,1076.369629 
	C1237.073608,1077.366333 1237.090820,1078.368408 1237.206421,1079.359009 
	C1239.208252,1096.522583 1252.689453,1109.700317 1270.221558,1111.645630 
	C1286.793579,1113.484497 1302.940430,1103.295776 1308.613892,1087.419556 
	C1314.461182,1071.056885 1308.777222,1052.975464 1294.455933,1043.915771 
	C1282.100342,1036.099487 1269.040283,1035.324219 1256.028809,1042.245239 
	C1242.862183,1049.248901 1236.910400,1060.683350 1237.010742,1076.369629 
z"/>
<path fill="#9CD893" opacity="1.000000" stroke="none" 
	d="
M1079.770142,857.583740 
	C1058.631836,861.947144 1041.956543,872.712158 1028.409180,889.999939 
	C1028.294189,887.788452 1028.161255,886.395447 1028.158813,885.002258 
	C1028.139648,874.171387 1028.110229,863.340332 1028.150757,852.509583 
	C1028.254028,824.944580 1050.785889,802.177185 1078.203125,801.895325 
	C1086.597656,801.809021 1092.062744,797.198975 1092.127319,790.149536 
	C1092.194458,782.825134 1086.647827,777.941956 1078.068237,777.989563 
	C1059.359497,778.093445 1042.903198,784.253723 1028.081421,797.510071 
	C1028.081421,791.879578 1027.933472,787.150146 1028.109375,782.432800 
	C1028.611206,768.977966 1027.769897,755.267822 1030.090088,742.122803 
	C1038.622681,693.779968 1085.618164,660.585022 1134.229492,667.538330 
	C1174.010986,673.228699 1205.415405,701.397034 1212.350708,738.730286 
	C1216.654297,761.896912 1208.609985,780.940063 1190.222778,795.694092 
	C1187.689453,797.726929 1186.156738,796.605103 1184.215576,795.082764 
	C1174.746704,787.657104 1164.026367,782.870911 1152.309448,780.301575 
	C1144.078125,778.496704 1137.001221,782.722717 1135.944092,789.947754 
	C1134.915894,796.974854 1138.973633,802.176514 1146.961060,803.966736 
	C1162.422852,807.432312 1174.194580,816.023621 1182.351074,829.544006 
	C1186.978516,837.214417 1189.491333,845.571655 1190.109985,855.162476 
	C1188.049805,855.162476 1186.271729,855.163269 1184.493530,855.162292 
	C1158.332520,855.147827 1132.169556,854.941589 1106.011841,855.227539 
	C1097.394653,855.321777 1088.791260,856.688660 1079.770142,857.583740 
z"/>
<path fill="#9CD893" opacity="1.000000" stroke="none" 
	d="
M1349.961914,855.076904 
	C1304.496094,855.077087 1259.523315,855.077087 1214.050293,855.077087 
	C1213.996948,841.025696 1210.457031,828.078613 1202.719238,816.118835 
	C1216.314453,807.061157 1226.180542,795.261414 1231.994629,780.170288 
	C1237.776123,765.163391 1238.344604,749.731018 1235.674194,734.092896 
	C1305.298828,723.426880 1368.119995,784.449280 1359.619019,855.076782 
	C1356.638306,855.076782 1353.546753,855.076782 1349.961914,855.076904 
z"/>
<path fill="#848384" opacity="1.000000" stroke="none" 
	d="
M1982.095215,1964.100220 
	C1974.994385,1978.308838 1963.755981,1985.141235 1948.255737,1985.047974 
	C1939.931641,1984.997803 1931.605225,1985.148804 1923.283081,1985.011963 
	C1904.172607,1984.697876 1888.931274,1969.071289 1888.960693,1949.957397 
	C1888.990234,1930.823730 1904.237793,1915.267456 1923.363892,1914.983765 
	C1931.852783,1914.857788 1940.345215,1914.933716 1948.835938,1914.962769 
	C1975.215332,1915.053101 1991.609863,1939.011108 1982.095215,1964.100220 
M1949.654053,1966.863770 
	C1952.348145,1967.179932 1953.672974,1966.148315 1953.624878,1963.269897 
	C1953.524780,1957.273682 1953.784302,1951.262817 1953.428467,1945.286011 
	C1953.349243,1943.955444 1951.543701,1942.013306 1950.172852,1941.625366 
	C1947.457153,1940.856689 1946.998535,1942.976929 1947.023193,1945.261597 
	C1947.088013,1951.258789 1946.950684,1957.259888 1947.119385,1963.253052 
	C1947.153198,1964.453735 1948.185791,1965.626465 1949.654053,1966.863770 
M1951.381836,1938.221924 
	C1952.281006,1936.537598 1953.694214,1934.902222 1953.860718,1933.148315 
	C1953.942993,1932.281738 1951.770264,1930.485840 1950.536621,1930.408569 
	C1949.279297,1930.329956 1947.228882,1931.552979 1946.739624,1932.716309 
	C1945.307373,1936.122314 1947.194336,1937.904541 1951.381836,1938.221924 
z"/>
<path fill="#1D1F1B" opacity="1.000000" stroke="none" 
	d="
M630.670410,1135.838745 
	C639.370483,1123.916260 650.521606,1115.779907 663.253357,1110.793945 
	C661.293030,1101.312622 658.859253,1092.191406 657.625427,1082.910645 
	C656.046204,1071.031616 657.808411,1059.301025 661.859558,1048.004761 
	C662.803406,1045.372925 664.103943,1042.764893 665.737366,1040.505127 
	C669.828064,1034.846069 676.493591,1033.562378 682.059875,1037.048706 
	C687.660583,1040.556641 689.199890,1046.171509 686.308899,1052.547363 
	C671.655823,1084.863525 691.623535,1124.713623 726.160339,1132.079834 
	C734.393677,1133.835938 738.856995,1139.105103 737.641846,1145.634766 
	C736.302856,1152.830078 729.214722,1157.104248 721.167297,1155.391113 
	C705.790100,1152.117432 692.379089,1145.029175 681.288757,1133.889526 
	C678.690857,1131.280029 676.760437,1131.123657 673.618958,1132.663086 
	C664.694458,1137.036377 656.440430,1142.159058 650.253967,1150.167969 
	C645.685364,1156.082520 640.867981,1157.297241 635.074707,1154.236328 
	C629.367737,1151.220703 627.073120,1144.884766 629.369507,1138.391968 
	C629.645081,1137.612915 630.097412,1136.896240 630.670410,1135.838745 
z"/>
<path fill="#FEFCF8" opacity="1.000000" stroke="none" 
	d="
M1182.759521,1048.242432 
	C1195.224731,1061.558716 1196.933960,1080.667603 1187.205933,1095.407959 
	C1177.634277,1109.911499 1159.248291,1115.662964 1142.712158,1109.326538 
	C1126.652710,1103.172974 1116.436157,1086.262329 1119.143433,1068.996460 
	C1121.417480,1054.493652 1130.008911,1044.410889 1143.741211,1039.414185 
	C1158.253784,1034.133545 1171.209229,1037.791504 1182.759521,1048.242432 
z"/>
<path fill="#FEFCF8" opacity="1.000000" stroke="none" 
	d="
M1394.584473,1111.646240 
	C1365.094971,1113.676392 1346.572876,1085.391602 1356.636841,1060.116333 
	C1362.971436,1044.207275 1380.720459,1034.954712 1398.286255,1038.253418 
	C1416.116821,1041.601807 1428.689575,1056.566528 1428.752441,1074.515625 
	C1428.812744,1091.742065 1416.210571,1107.390747 1399.459717,1110.865845 
	C1397.994751,1111.169922 1396.505981,1111.359009 1394.584473,1111.646240 
z"/>
<path fill="#FEFCF8" opacity="1.000000" stroke="none" 
	d="
M1237.001465,1075.901855 
	C1236.910400,1060.683350 1242.862183,1049.248901 1256.028809,1042.245239 
	C1269.040283,1035.324219 1282.100342,1036.099487 1294.455933,1043.915771 
	C1308.777222,1052.975464 1314.461182,1071.056885 1308.613892,1087.419556 
	C1302.940430,1103.295776 1286.793579,1113.484497 1270.221558,1111.645630 
	C1252.689453,1109.700317 1239.208252,1096.522583 1237.206421,1079.359009 
	C1237.090820,1078.368408 1237.073608,1077.366333 1237.001465,1075.901855 
z"/>
<path fill="#1D1F1B" opacity="1.000000" stroke="none" 
	d="
M1949.205811,1966.837891 
	C1948.185791,1965.626465 1947.153198,1964.453735 1947.119385,1963.253052 
	C1946.950684,1957.259888 1947.088013,1951.258789 1947.023193,1945.261597 
	C1946.998535,1942.976929 1947.457153,1940.856689 1950.172852,1941.625366 
	C1951.543701,1942.013306 1953.349243,1943.955444 1953.428467,1945.286011 
	C1953.784302,1951.262817 1953.524780,1957.273682 1953.624878,1963.269897 
	C1953.672974,1966.148315 1952.348145,1967.179932 1949.205811,1966.837891 
z"/>
<path fill="#1D1F1B" opacity="1.000000" stroke="none" 
	d="
M1950.977173,1938.307129 
	C1947.194336,1937.904541 1945.307373,1936.122314 1946.739624,1932.716309 
	C1947.228882,1931.552979 1949.279297,1930.329956 1950.536621,1930.408569 
	C1951.770264,1930.485840 1953.942993,1932.281738 1953.860718,1933.148315 
	C1953.694214,1934.902222 1952.281006,1936.537598 1950.977173,1938.307129 
z"/>
</svg>